  0
SECTION
  2
HEADER
  9
$ACADVER
  1
AC1009
  9
$INSBASE
 10
0.0
 20
0.0
 30
0.0
  9
$EXTMIN
 10
0.0
 20
0.0
 30
0.0
  9
$EXTMAX
 10
0.0
 20
0.0
 30
0.0
  0
ENDSEC
  0
SECTION
  2
TABLES
  0
TABLE
  2
VPORT
 70
0
  0
ENDTAB
  0
TABLE
  2
LTYPE
 70
1
  0
LTYPE
  2
CONTINUOUS
 70
0
  3
Solid line
 72
65
 73
0
 40
0.0
  0
ENDTAB
  0
TABLE
  2
LAYER
 70
1
  0
LAYER
  2
0
 70
64
 62
7
  6
continuous
  0
ENDTAB
  0
TABLE
  2
STYLE
 70
1
  0
STYLE
  2
STANDARD
 70
0
 40
0
 41
1.0
 50
0.0
 71
0
 42
1
 3
ARIAL.TTF
 4

  0
ENDTAB
  0
TABLE
  2
VIEW
 70
0
  0
ENDTAB
  0
ENDSEC
  0
SECTION
  2
BLOCKS
  0
BLOCK
  8
0
  2
FACE
 70
0
 10
0.0
 20
0.0
 30
0.0
  3
FACE
  0
ARC
  8
0
 62
0
 10
36.0
 20
2.66666666667
 30
0.0
 40
1.5
 50
-36.8698976458
 51
0.0
  0
LINE
  8
0
 62
0
 10
20.0000000005
 20
-21.166666667
 30
0.0
 11
37.1999999999
 21
1.76666666672
 31
0.0
  0
ARC
  8
0
 62
0
 10
22.0
 20
-22.6666666667
 30
0.0
 40
2.5
 50
143.130102354
 51
-180.0
  0
LINE
  8
0
 62
0
 10
19.4999999999
 20
-36.6147511257
 30
0.0
 11
19.5000000005
 21
-22.6666666732
 31
0.0
  0
ARC
  8
0
 62
0
 10
18.0
 20
-36.6147511257
 30
0.0
 40
1.5
 50
-63.821031296
 51
-0.0
  0
ARC
  8
0
 62
0
 10
1.57740487339e-12
 20
-1.3571366253e-12
 30
0.0
 40
42.3
 50
-74.3590674271
 51
-63.821031296
  0
ARC
  8
0
 62
0
 10
11.0
 20
-39.2891842623
 30
0.0
 40
1.5
 50
-180.0
 51
-74.3590674269
  0
LINE
  8
0
 62
0
 10
9.4999999994
 20
-30.1993377411
 30
0.0
 11
9.50000000008
 21
-39.2891842621
 31
0.0
  0
ARC
  8
0
 62
0
 10
7.0
 20
-30.1993377411
 30
0.0
 40
2.5
 50
-0.0
 51
103.05030494
  0
ARC
  8
0
 62
0
 10
1.59872115546e-14
 20
8.13571432445e-13
 30
0.0
 40
28.5
 50
-103.05030494
 51
-76.9496950603
  0
ARC
  8
0
 62
0
 10
-7.0
 20
-30.1993377411
 30
0.0
 40
2.5
 50
76.9496950603
 51
-180.0
  0
LINE
  8
0
 62
0
 10
-9.50000000008
 20
-39.2891842623
 30
0.0
 11
-9.49999999948
 21
-30.1993377501
 31
0.0
  0
ARC
  8
0
 62
0
 10
-11.0
 20
-39.2891842623
 30
0.0
 40
1.5
 50
-105.640932573
 51
-0.0
  0
ARC
  8
0
 62
0
 10
1.172395514e-12
 20
5.82645043323e-13
 30
0.0
 40
42.3
 50
-116.178968704
 51
-105.640932573
  0
ARC
  8
0
 62
0
 10
-18.0
 20
-36.6147511257
 30
0.0
 40
1.5
 50
180.0
 51
-116.178968704
  0
LINE
  8
0
 62
0
 10
-19.5000000005
 20
-22.6666666667
 30
0.0
 11
-19.4999999999
 21
-36.6147511245
 31
0.0
  0
ARC
  8
0
 62
0
 10
-22.0
 20
-22.6666666667
 30
0.0
 40
2.5
 50
-0.0
 51
36.8698976458
  0
LINE
  8
0
 62
0
 10
-37.1999999999
 20
1.76666666673
 30
0.0
 11
-19.9999999981
 21
-21.1666666702
 31
0.0
  0
ARC
  8
0
 62
0
 10
-36.0
 20
2.66666666667
 30
0.0
 40
1.5
 50
180.0
 51
-143.130102354
  0
LINE
  8
0
 62
0
 10
-37.4999999999
 20
14.0
 30
0.0
 11
-37.4999999999
 21
2.66666666722
 31
0.0
  0
ARC
  8
0
 62
0
 10
-36.0
 20
14.0
 30
0.0
 40
1.5
 50
90.0
 51
-180.0
  0
LINE
  8
0
 62
0
 10
-29.0
 20
15.4999999999
 30
0.0
 11
-35.9999999994
 21
15.4999999999
 31
0.0
  0
ARC
  8
0
 62
0
 10
-29.0
 20
14.0
 30
0.0
 40
1.5
 50
-0.0
 51
90.0
  0
LINE
  8
0
 62
0
 10
-27.4999999996
 20
0.392232270931
 30
0.0
 11
-27.5000000001
 21
13.9999999994
 31
0.0
  0
ARC
  8
0
 62
0
 10
-25.0
 20
0.392232270276
 30
0.0
 40
2.5
 50
180.0
 51
-157.808393434
  0
LINE
  8
0
 62
0
 10
-23.6111111111
 20
-9.63148130345
 30
0.0
 11
-27.3148148123
 21
-0.552030608053
 31
0.0
  0
ARC
  8
0
 62
0
 10
1.1812772982e-13
 20
2.68229882749e-13
 30
0.0
 40
25.5
 50
-157.808393434
 51
-22.1916065663
  0
LINE
  8
0
 62
0
 10
27.3148148145
 20
-0.552030602471
 30
0.0
 11
23.6111111111
 21
-9.63148130345
 31
0.0
  0
ARC
  8
0
 62
0
 10
25.0
 20
0.392232270276
 30
0.0
 40
2.5
 50
-22.1916065663
 51
-0.0
  0
LINE
  8
0
 62
0
 10
27.5000000001
 20
14.0
 30
0.0
 11
27.4999999997
 21
0.392232276284
 31
0.0
  0
ARC
  8
0
 62
0
 10
29.0
 20
14.0
 30
0.0
 40
1.5
 50
90.0
 51
-180.0
  0
LINE
  8
0
 62
0
 10
36.0
 20
15.4999999999
 30
0.0
 11
29.000000002
 21
15.4999999999
 31
0.0
  0
ARC
  8
0
 62
0
 10
36.0
 20
14.0
 30
0.0
 40
1.5
 50
-0.0
 51
90.0
  0
LINE
  8
0
 62
0
 10
37.4999999999
 20
2.66666666667
 30
0.0
 11
37.4999999999
 21
13.999999998
 31
0.0
  0
ENDBLK
  0
ENDSEC
  0
SECTION
  2
ENTITIES
  0
INSERT
  2
FACE
  8
0
 10
0.0
 20
0.0
 30
0.0
  0
ENDSEC
  0
EOF
